<svg xmlns="http://www.w3.org/2000/svg" width="70" height="70" fill="none"><path fill="#fff" d="M65.082 30.086a4.92 4.92 0 0 0-4.79 3.82h-8.106a17.14 17.14 0 0 0-4.267-10.28l5.736-5.733c.784.49 1.69.75 2.615.75 1.26 0 2.52-.478 3.48-1.435a4.927 4.927 0 0 0-.002-6.955l-.001-.001a4.93 4.93 0 0 0-6.952.001 4.93 4.93 0 0 0-.685 6.094l-5.736 5.732a17.16 17.16 0 0 0-10.28-4.267v-8.1a4.926 4.926 0 0 0 3.825-4.795 4.926 4.926 0 0 0-4.92-4.918 4.92 4.92 0 0 0-4.913 4.918 4.924 4.924 0 0 0 3.821 4.793v8.101a17.15 17.15 0 0 0-10.28 4.268l-5.732-5.732a4.93 4.93 0 0 0-.685-6.097c-1.921-1.912-5.042-1.912-6.957.003a4.926 4.926 0 0 0 0 6.955 4.9 4.9 0 0 0 3.477 1.437c.91 0 1.821-.252 2.618-.752l5.733 5.733a17.16 17.16 0 0 0-4.264 10.28H9.712a4.925 4.925 0 0 0-4.793-3.822A4.924 4.924 0 0 0-.001 35a4.924 4.924 0 0 0 4.918 4.918 4.926 4.926 0 0 0 4.795-3.825h8.105a17.16 17.16 0 0 0 4.264 10.28l-5.734 5.736a4.93 4.93 0 0 0-6.095.685 4.933 4.933 0 0 0 .001 6.956 4.9 4.9 0 0 0 3.476 1.437c1.259 0 2.52-.478 3.48-1.437a4.934 4.934 0 0 0 .684-6.093l5.734-5.737a17.15 17.15 0 0 0 10.28 4.269v8.104a4.92 4.92 0 0 0-3.821 4.79 4.92 4.92 0 0 0 4.913 4.919 4.924 4.924 0 0 0 4.918-4.918 4.924 4.924 0 0 0-3.825-4.79v-8.105a17.14 17.14 0 0 0 10.281-4.267l5.736 5.735a4.935 4.935 0 0 0 .684 6.095 4.9 4.9 0 0 0 3.477 1.434 4.9 4.9 0 0 0 3.477-1.434l.001-.002a4.933 4.933 0 0 0-.001-6.956 4.934 4.934 0 0 0-6.094-.683l-5.734-5.736a17.16 17.16 0 0 0 4.267-10.281h8.105a4.92 4.92 0 0 0 4.79 3.825A4.924 4.924 0 0 0 70 35.001a4.92 4.92 0 0 0-4.917-4.915M54.338 11.8a2.73 2.73 0 0 1 1.934-.798c.7 0 1.4.266 1.933.797a2.74 2.74 0 0 1 0 3.863 2.74 2.74 0 0 1-3.865.001 2.74 2.74 0 0 1-.002-3.863M32.271 4.917a2.733 2.733 0 0 1 2.728-2.732 2.734 2.734 0 0 1 2.732 2.732A2.735 2.735 0 0 1 35 7.65a2.735 2.735 0 0 1-2.728-2.733M11.8 15.663a2.74 2.74 0 0 1-.002-3.865A2.73 2.73 0 0 1 13.73 11c.7 0 1.4.266 1.933.798a2.74 2.74 0 0 1 0 3.865 2.74 2.74 0 0 1-3.863 0M4.917 37.731a2.734 2.734 0 0 1-2.731-2.732 2.734 2.734 0 0 1 2.731-2.729A2.735 2.735 0 0 1 7.65 35a2.735 2.735 0 0 1-2.733 2.73m10.748 20.472a2.74 2.74 0 0 1-3.865.002 2.74 2.74 0 0 1-.002-3.865 2.72 2.72 0 0 1 1.93-.798c.7 0 1.4.267 1.934.797a2.74 2.74 0 0 1 .003 3.864M37.73 65.08A2.734 2.734 0 0 1 35 67.812a2.734 2.734 0 0 1-2.728-2.732 2.73 2.73 0 0 1 2.728-2.729 2.735 2.735 0 0 1 2.732 2.73m18.542-11.538c.7 0 1.399.266 1.93.796a2.74 2.74 0 0 1 .002 3.865 2.74 2.74 0 0 1-3.864.002 2.74 2.74 0 0 1-.001-3.865 2.73 2.73 0 0 1 1.933-.798m-21.274-3.506c-8.289 0-15.033-6.746-15.033-15.037 0-8.29 6.744-15.036 15.033-15.036 8.292 0 15.037 6.746 15.037 15.036S43.29 50.036 34.999 50.036M65.082 37.73a2.734 2.734 0 0 1-2.73-2.732 2.73 2.73 0 0 1 2.73-2.729A2.733 2.733 0 0 1 67.813 35a2.735 2.735 0 0 1-2.731 2.73M42.61 32.177h-4.787V24.8a1.092 1.092 0 0 0-1.954-.674l-9.34 11.932a1.093 1.093 0 0 0 .861 1.767h4.787v7.379a1.092 1.092 0 0 0 1.953.674l9.34-11.933a1.095 1.095 0 0 0-.86-1.767m-8.247 9.856v-5.302c0-.604-.49-1.092-1.093-1.092h-3.635l6.003-7.67v5.302c0 .604.49 1.093 1.093 1.093h3.635z"/></svg>