<svg xmlns="http://www.w3.org/2000/svg" width="70" height="71" fill="none"><path fill="#fff" d="M37.333 67.718H3.5a1.167 1.167 0 0 1-1.166-1.167V5.885A1.167 1.167 0 0 1 3.5 4.718h7a1.167 1.167 0 0 0 0-2.333h-7a3.5 3.5 0 0 0-3.5 3.5V66.55a3.5 3.5 0 0 0 3.5 3.5h33.833a1.167 1.167 0 1 0 0-2.333m3.5-63h7A1.166 1.166 0 0 1 49 5.885v23.333a1.167 1.167 0 1 0 2.333 0V5.885a3.5 3.5 0 0 0-3.5-3.5h-7a1.167 1.167 0 0 0 0 2.333M17.5 9.385h16.333a3.5 3.5 0 0 0 3.5-3.5V3.55a3.5 3.5 0 0 0-3.5-3.5H17.5a3.5 3.5 0 0 0-3.5 3.5v2.334a3.5 3.5 0 0 0 3.5 3.5M16.334 3.55A1.167 1.167 0 0 1 17.5 2.385h16.333A1.167 1.167 0 0 1 35 3.55v2.334a1.167 1.167 0 0 1-1.167 1.166H17.5a1.167 1.167 0 0 1-1.166-1.166z"/><path fill="#fff" d="M16.333 12.885a1.167 1.167 0 0 0-1.167-1.167H5.833a1.167 1.167 0 0 0-1.167 1.167v9.333a1.167 1.167 0 0 0 1.167 1.167h9.333a1.167 1.167 0 0 0 1.167-1.167zm-2.334 8.166H7v-7h7zm2.334 5.834a1.167 1.167 0 0 0-1.167-1.167H5.833a1.167 1.167 0 0 0-1.167 1.167v9.333a1.167 1.167 0 0 0 1.167 1.167h9.333a1.167 1.167 0 0 0 1.167-1.167zm-2.334 8.166H7v-7h7zm2.334 5.834a1.167 1.167 0 0 0-1.167-1.167H5.833a1.167 1.167 0 0 0-1.167 1.167v9.333a1.167 1.167 0 0 0 1.167 1.167h9.333a1.167 1.167 0 0 0 1.167-1.167zm-2.334 8.166H7v-7h7zm1.167 4.667H5.833a1.167 1.167 0 0 0-1.167 1.167v9.333a1.167 1.167 0 0 0 1.167 1.167h9.333a1.167 1.167 0 0 0 1.167-1.167v-9.333a1.167 1.167 0 0 0-1.167-1.167m-1.167 9.333H7v-7h7zm31.5-49h-21a1.167 1.167 0 1 0 0 2.334h21a1.166 1.166 0 1 0 0-2.334m0 4.667H19.833a1.167 1.167 0 1 0 0 2.333h25.666a1.166 1.166 0 0 0 0-2.333m1.167 10.5a1.167 1.167 0 0 0-1.167-1.167h-21a1.167 1.167 0 1 0 0 2.334h21a1.166 1.166 0 0 0 1.167-1.167m-9.333 4.667a1.167 1.167 0 0 0-1.167-1.167H19.833a1.167 1.167 0 1 0 0 2.333h16.333a1.166 1.166 0 0 0 1.167-1.166m-8.167 8.166h-4.667a1.167 1.167 0 1 0 0 2.334h4.667a1.167 1.167 0 1 0 0-2.334m-1.167 4.667h-8.166a1.167 1.167 0 1 0 0 2.333h8.166a1.167 1.167 0 0 0 0-2.333m0 9.333h-3.5a1.167 1.167 0 1 0 0 2.334H28a1.167 1.167 0 1 0 0-2.334m-8.166 7h10.5a1.167 1.167 0 0 0 0-2.333h-10.5a1.167 1.167 0 1 0 0 2.333"/><path fill="#fff" d="M64.577 43.315a1.166 1.166 0 0 0-.603 1.537 16.32 16.32 0 1 1-8.441-8.441 1.166 1.166 0 1 0 .933-2.139 18.654 18.654 0 1 0 9.646 9.646 1.166 1.166 0 0 0-1.535-.603"/><path fill="#fff" d="M53.279 43.087a1.165 1.165 0 0 0 1.427-1.789 1.2 1.2 0 0 0-.356-.284 11.666 11.666 0 1 0 6.317 10.37c.005-1.799-.41-3.575-1.213-5.185a1.168 1.168 0 0 0-1.93-.254 1.17 1.17 0 0 0-.16 1.292 9.25 9.25 0 0 1 .97 4.148A9.334 9.334 0 1 1 49 42.05a9.2 9.2 0 0 1 4.278 1.036"/><path fill="#fff" d="M48.221 49.184a1.166 1.166 0 1 0-.777-2.2 4.666 4.666 0 1 0 5.95 5.95 1.167 1.167 0 0 0-2.2-.777 2.332 2.332 0 1 1-2.979-2.978z"/><path fill="#fff" d="M69.911 35.771a1.17 1.17 0 0 0-1.078-.72h-3.5v-3.5a1.168 1.168 0 0 0-1.991-.825l-4.667 4.667a1.17 1.17 0 0 0-.342.825V40.4L48.175 50.56a1.164 1.164 0 0 0-.014 1.664 1.164 1.164 0 0 0 1.664-.015l10.158-10.158h4.184c.31 0 .606-.123.825-.342l4.666-4.666a1.17 1.17 0 0 0 .253-1.272m-9.244.933L63 34.371v1.367l-2.333 2.334zm3.017 3.014h-1.368l2.334-2.334h1.367z"/></svg>