<svg xmlns="http://www.w3.org/2000/svg" width="70" height="71" fill="none"><path fill="#fff" d="M5.532 45.392c-3.346 6.172.316 12.61 6.736 14.34.094 1.674.727 5.956 4.593 8.82 2.427 1.81 5.865 2.81 9.299 2.107 1.701-.433 4.343-1.621 5.128-3.111.164-.307.08-.254.102-8.027 1.298-.207 2.293-1.3 2.293-2.625 0-1.472-1.227-2.669-2.734-2.669a2.73 2.73 0 0 0-1.603.513c-.466.336-.814.81-.993 1.354h-6.241l-5.158-6.725a.806.806 0 0 0-1.408.393.8.8 0 0 0 .132.58l5.397 7.041a.8.8 0 0 0 .639.314h6.639a2.68 2.68 0 0 0 1.429 1.604v7.598c-.904 1.184-3.178 1.991-3.984 2.198-4.02.82-7.12-1.191-7.975-1.83-3.971-2.943-3.975-7.625-3.962-8.15a.8.8 0 0 0-.634-.804c-6.134-1.317-9.401-7.36-5.957-12.706a.8.8 0 0 0-.221-1.093c-4.493-3.084-7.054-8.262-4.35-12.666.759-1.237 2.43-3.334 4.74-3.294a4.4 4.4 0 0 1 2.01.519q.541.415 1.148.771a.806.806 0 0 0 1.065-.23.8.8 0 0 0-.142-1.076 7.5 7.5 0 0 0-1.19-.814c-3.498-2.764-4.444-8.152-1.75-11.878 2.01-2.779 5.606-3.992 8.403-3.695a.81.81 0 0 0 .82-.47.8.8 0 0 0 .07-.327v-1.083c0-4.291 3.628-7.782 8.087-7.782 1.722 0 3.164.508 4.484 1.915v1.94a.8.8 0 0 0 .804.802.806.806 0 0 0 .804-.802c-.056-2.126.136-2.387-.194-2.77C30.216 1.672 28.234.886 25.96.886c-5.346 0-9.695 4.211-9.695 9.385v.232c-2.704-.034-6.595 1.095-8.989 4.406-2.648 3.66-2.327 8.533.11 12.042-2.307.01-4.458 1.452-6.059 4.06-2.503 4.076-1.658 9.87 4.205 14.381M30.949 55.83c.62 0 1.126.478 1.126 1.066s-.505 1.066-1.126 1.066c-.622 0-1.128-.478-1.128-1.066s.506-1.066 1.128-1.066m7.804-48.577a.806.806 0 0 0 .804-.802V4.404c1.345-1.43 2.773-1.916 4.485-1.916 4.458 0 8.087 3.492 8.087 7.784v1.083a.8.8 0 0 0 .894.796c2.844-.313 6.41.946 8.399 3.696 2.684 3.711 1.762 9.1-1.75 11.878a7.6 7.6 0 0 0-1.19.813.801.801 0 0 0 .346 1.396c.196.043.402.011.576-.09a11 11 0 0 0 1.15-.77 4.4 4.4 0 0 1 2.009-.52c.107.056 2.524-.315 4.74 3.294.595.97.935 2.063 1.043 3.239-1.704.003-4.317-.007-4.599.01a2.45 2.45 0 0 0-2.273-1.501c-1.353 0-2.455 1.075-2.455 2.398s1.102 2.398 2.455 2.398a2.45 2.45 0 0 0 1.449-.47c.42-.305.732-.737.889-1.232h4.522c-.51 4.253-4.521 7.233-5.382 7.824a.8.8 0 0 0-.22 1.093c3.492 5.419.08 11.41-5.958 12.707a.806.806 0 0 0-.635.803c.014.525.011 5.207-3.96 8.15-4.314 3.205-10.48 1.994-12.481-.172V59.52c.924-.428 1.57-1.342 1.57-2.405 0-1.47-1.228-2.668-2.737-2.668-1.508 0-2.734 1.197-2.734 2.67 0 1.323.996 2.417 2.292 2.624v7.656c0 .102.086.386.172.496 2.231 2.83 9.53 4.635 14.878.66 3.867-2.865 4.5-7.146 4.595-8.821 6.442-1.736 10.073-8.182 6.736-14.34 5.87-4.525 6.703-10.31 4.204-14.382-1.601-2.607-3.751-4.048-6.059-4.059 2.386-3.343 2.799-8.325.11-12.041-2.392-3.312-6.333-4.439-8.988-4.407v-.23c0-5.177-4.35-9.388-9.695-9.388-2.175 0-4.182.705-5.898 2.688-.335.386-.14.718-.195 2.878 0 .443.36.802.804.802m22.722 29.535c-.467 0-.847-.355-.847-.794 0-.438.38-.795.847-.795.468 0 .846.356.846.795s-.378.794-.846.794M38.53 58.182c-.62 0-1.126-.478-1.126-1.066s.505-1.065 1.126-1.065c.622 0 1.128.477 1.128 1.065s-.506 1.066-1.128 1.066"/><path fill="#fff" d="M31.069 22.816a.8.8 0 0 0-.804-.802.806.806 0 0 0-.805.802v2.997h-.534c-2.877 0-5.222 2.196-5.506 4.991h-2.927a.805.805 0 0 0-.805.802.8.8 0 0 0 .805.801h2.871v3.431h-2.873a.805.805 0 0 0-.804.802.8.8 0 0 0 .804.802h2.873v3.226h-2.873a.806.806 0 0 0-.804.802.8.8 0 0 0 .804.802h2.882a5.554 5.554 0 0 0 5.553 5.457h.534v2.937a.8.8 0 0 0 .805.802.806.806 0 0 0 .804-.802v-2.937h3.385v2.937a.8.8 0 0 0 .804.802.806.806 0 0 0 .805-.802v-2.937h3.596v2.937a.8.8 0 0 0 .804.802.806.806 0 0 0 .805-.802v-2.937h.321a5.554 5.554 0 0 0 5.553-5.457h2.505a.805.805 0 0 0 .804-.802.8.8 0 0 0-.804-.802H47.15v-3.227h2.496a.805.805 0 0 0 .804-.802.8.8 0 0 0-.804-.802H47.15v-3.43h2.496a.805.805 0 0 0 .804-.802.8.8 0 0 0-.804-.802h-2.553c-.283-2.794-2.628-4.99-5.505-4.99h-.321v-2.997a.8.8 0 0 0-.805-.802.805.805 0 0 0-.804.802v2.997h-3.596v-2.997a.8.8 0 0 0-.805-.802.805.805 0 0 0-.804.802v2.997H31.07zm10.52 4.6c1.049.001 2.054.416 2.795 1.155a3.94 3.94 0 0 1 1.159 2.786v10.828a3.94 3.94 0 0 1-1.16 2.785 3.96 3.96 0 0 1-2.794 1.156H28.925a3.96 3.96 0 0 1-2.793-1.156 3.94 3.94 0 0 1-1.16-2.785V31.357c.002-1.045.418-2.047 1.16-2.786a3.96 3.96 0 0 1 2.794-1.155zm-27.652 8.578a2.44 2.44 0 0 0-.718-1.725 2.46 2.46 0 0 0-1.73-.716 2.45 2.45 0 0 0-2.274 1.544c-.015-.001-.028-.01-.043-.01h-5.08a.806.806 0 0 0-.805.802.8.8 0 0 0 .805.801h5.06a2.45 2.45 0 0 0 2.335 1.744c.65 0 1.273-.258 1.732-.715a2.44 2.44 0 0 0 .718-1.725m-2.449.837a.84.84 0 0 1-.81-.837.837.837 0 0 1 .81-.837.84.84 0 0 1 .811.837.837.837 0 0 1-.81.837M44.14 56.315a.806.806 0 0 0-.804.801.8.8 0 0 0 .804.802h3.627a.8.8 0 0 0 .639-.316l6.781-8.843c1.81.49 3.463-.857 3.463-2.562 0-1.47-1.228-2.669-2.737-2.669-2.302 0-3.587 2.619-2.09 4.37l-6.454 8.417zm11.774-11.183c.621 0 1.126.479 1.126 1.065 0 .587-.505 1.067-1.126 1.067-.622 0-1.126-.479-1.126-1.067s.504-1.065 1.126-1.065M40.29 14.244l5.537 1.53 3.886 6.342a.8.8 0 0 0 .812.378.81.81 0 0 0 .66-.606.8.8 0 0 0-.1-.608l-4.05-6.613a.8.8 0 0 0-.472-.353l-5.546-1.533c.248-1.681-1.095-3.05-2.697-3.05-1.508 0-2.735 1.198-2.735 2.67 0 2.399 3 3.577 4.705 1.843m-1.97-2.91c.622 0 1.127.48 1.127 1.066 0 .588-.505 1.066-1.126 1.066-.622 0-1.127-.478-1.127-1.065 0-.588.505-1.066 1.126-1.066m16.745 14.61c0-1.472-1.227-2.67-2.734-2.67-1.51 0-2.736 1.198-2.736 2.67s1.227 2.668 2.735 2.668 2.735-1.197 2.735-2.669m-2.734 1.065c-.622 0-1.127-.478-1.127-1.066s.505-1.065 1.126-1.065c.622 0 1.127.477 1.127 1.065s-.505 1.066-1.126 1.066M28.424 12.18c0 1.472 1.227 2.67 2.736 2.67 1.508 0 2.734-1.197 2.734-2.67s-1.226-2.669-2.734-2.669-2.736 1.198-2.736 2.67m3.862 0c0 .588-.504 1.067-1.126 1.067s-1.127-.478-1.127-1.067c0-.588.505-1.065 1.127-1.065s1.126.479 1.126 1.065m-13.51 11.334 4.878-7.96 2.722-.753a.805.805 0 0 0 .584-.992.8.8 0 0 0-1.013-.552l-3.029.837a.8.8 0 0 0-.472.353l-5.18 8.455c-1.687-.146-2.976 1.152-2.976 2.646 0 1.472 1.227 2.669 2.735 2.669 2.532 0 3.716-3.09 1.75-4.703m-2.877 2.034c0-.588.505-1.066 1.126-1.066.622 0 1.127.478 1.127 1.066s-.505 1.066-1.126 1.066c-.622 0-1.127-.48-1.127-1.066m-2.331 23.099c1.507 0 2.734-1.197 2.734-2.67s-1.227-2.669-2.734-2.669c-1.51 0-2.737 1.197-2.737 2.67 0 1.47 1.228 2.669 2.737 2.669m0-3.736c.62 0 1.126.478 1.126 1.066s-.506 1.066-1.126 1.066c-.622 0-1.128-.478-1.128-1.066s.506-1.065 1.128-1.065"/><path fill="#fff" d="M29.618 40.652c.357 0 .6-.095.881-.72l.647-1.521h4.52c.595 1.314.692 1.782 1.018 2.064.327.285 1.182.281 1.282-.348.064-.411.027-.16-3.59-8.214-.193-.43-.486-.708-.958-.708-.484 0-.776.27-.974.708l-3.47 7.665c-.27.622.03 1.074.643 1.074m3.774-7.52h.027l1.675 3.944h-3.365zm6.756 7.52c.564 0 .84-.327.84-.866V32.07c0-.57-.309-.865-.841-.865-.543 0-.841.306-.841.866v7.717c0 .53.287.864.842.864"/></svg>