<svg xmlns="http://www.w3.org/2000/svg" width="74" height="74" fill="none"><path stroke="#fff" stroke-linecap="round" stroke-linejoin="round" stroke-miterlimit="22.926" stroke-width="2.846" d="M31.006 38.992h11.99M37 32.735V19.073M44.114 33.3v8.536l-2.845 2.846h-8.537l-2.845-2.846v-8.536c0-2.65-.38-3.436-4.208-8.456a14.17 14.17 0 0 1-2.906-8.618C22.773 8.37 29.143 2 37 2s14.227 6.37 14.227 14.227c0 3.24-1.083 6.226-2.906 8.618-3.827 5.02-4.208 5.805-4.208 8.456"/><path stroke="#fff" stroke-linecap="round" stroke-linejoin="round" stroke-miterlimit="22.926" stroke-width="2.846" d="M39.846 16.228 37 19.073l-2.846-2.845M30.47 33.3h13.06M13.524 16.228h2.846m.3-11.738 2.464 1.423m-2.465 22.052 2.465-1.422m41.342-10.315H57.63m-.3-11.738-2.464 1.423m2.464 22.052-2.464-1.422M3.423 61.33v-5.087c7.755 0 11.89-2.917 15.624-4.345 7.75-2.964 13.71-.593 17.953 6.914m0 0c4.243-7.507 10.203-9.878 17.953-6.914 3.734 1.428 7.87 4.345 15.624 4.345v5.087M37 58.812v4.43m0 1.422c1.063-1.84 2.733-2.623 4.858-2.623H72v6.402H41.773a4.982 4.982 0 0 1-9.546 0H2v-6.402h30.142c2.125 0 3.795.783 4.858 2.623"/></svg>