<svg width="125" height="105" viewBox="0 0 125 105" fill="none" xmlns="http://www.w3.org/2000/svg">
<path d="M69.7475 42.7994C68.7139 43.6141 67.2531 43.651 66.1009 42.9892L61.2361 40.1996C59.6277 39.2767 57.579 39.812 56.6562 41.3966L51.5937 50.082C50.6603 51.6825 51.2192 53.7338 52.8408 54.6593L57.753 57.4674C58.9923 58.1741 59.5855 59.5689 59.3878 60.9716C59.016 63.6215 59.0239 66.3426 59.4168 69.0532C59.6198 70.4533 59.0318 71.8481 57.8005 72.5626L52.9094 75.4103C51.2878 76.3542 50.7341 78.4267 51.678 80.0377L56.8012 88.789C57.7451 90.4 59.8202 90.93 61.4392 89.9755L66.3118 87.0989C67.5379 86.3764 69.0408 86.5425 70.1614 87.4047C72.3314 89.0738 74.6992 90.4106 77.1909 91.3835C78.504 91.8951 79.4479 93.0869 79.469 94.5054V100.206C79.4954 102.065 81.0273 103.544 82.873 103.512L92.9189 103.341C94.7515 103.309 96.2201 101.783 96.2017 99.9265L96.1463 94.3156C96.1331 92.984 96.8793 91.7263 98.0948 91.2253C99.3763 90.6954 100.626 90.0625 101.852 89.3295C103.076 88.5939 104.22 87.7871 105.285 86.909C106.295 86.0758 107.732 86.0178 108.868 86.6664L113.651 89.3902C115.228 90.2867 117.214 89.7198 118.092 88.1219L122.867 79.4392C123.74 77.8519 123.178 75.8348 121.612 74.933L116.852 72.1935C115.65 71.5 115.059 70.1289 115.236 68.7447C115.568 66.137 115.531 63.466 115.123 60.8108C114.912 59.4397 115.466 58.0818 116.639 57.3883L121.282 54.6461C122.814 53.7417 123.312 51.7405 122.395 50.1743L117.417 41.6708C116.499 40.1046 114.514 39.5615 112.974 40.4553L108.315 43.1685C107.136 43.854 105.681 43.6721 104.589 42.8178C102.474 41.1646 100.162 39.8251 97.7257 38.839C96.4337 38.3169 95.5267 37.1304 95.5108 35.7435L95.4502 30.2486C95.4291 28.4477 93.9578 26.9342 92.1569 26.9079H82.2271C80.4104 26.8973 78.9654 28.3106 78.976 30.1194V35.6354C78.9839 36.9432 78.2509 38.1666 77.0301 38.6386C75.7407 39.1396 74.4777 39.7434 73.2411 40.4527C72.0019 41.162 70.8391 41.9451 69.7501 42.8046V42.7994H69.7475ZM8.04824 29.5077C8.10098 30.4358 7.53145 31.2954 6.67979 31.6935L3.09649 33.3757C1.9126 33.9321 1.39053 35.3322 1.93369 36.5081L4.90527 42.9523C5.45371 44.1388 6.86436 44.6477 8.05615 44.0861L11.6685 42.3828C12.5781 41.953 13.6249 42.1745 14.3579 42.8574C15.7396 44.1467 17.3163 45.2436 19.0434 46.1137C19.9346 46.5646 20.5015 47.469 20.4171 48.4683L20.0822 52.4497C19.9715 53.7707 20.9444 54.9309 22.2602 55.0364L29.3951 55.6191C30.7082 55.7272 31.8578 54.7411 31.9606 53.4201L32.2718 49.436C32.3509 48.434 33.0549 47.6325 34.0067 47.3345C35.8498 46.7571 37.5821 45.9291 39.1536 44.8824C39.9815 44.3287 41.0521 44.268 41.88 44.8296C41.8853 44.8349 45.1706 47.1341 45.1759 47.1368C46.2622 47.875 47.7388 47.5876 48.4665 46.5092L52.4374 40.632C53.1625 39.5588 52.8725 38.0928 51.794 37.3519L48.5271 35.1107C47.752 34.5781 47.3274 33.6394 47.5305 32.7324C47.744 31.7779 47.8838 30.797 47.955 29.7924C48.0262 28.7878 48.0235 27.7991 47.9471 26.8261C47.8732 25.9033 48.4243 25.0516 49.2575 24.6561L52.7696 22.995C53.9271 22.4465 54.4044 21.0675 53.8349 19.9153L50.7473 13.6373C50.183 12.4903 48.7882 11.9972 47.6333 12.5377L44.1212 14.1804C43.2326 14.5944 42.2017 14.3808 41.4739 13.719C40.1002 12.4718 38.5419 11.4092 36.8412 10.5707C35.9632 10.1383 35.4016 9.26821 35.4754 8.30844L35.7707 4.5142C35.8683 3.26176 34.9138 2.16489 33.6376 2.05942L26.7057 1.49252C25.4295 1.38705 24.3089 2.31782 24.2034 3.56762L23.8844 7.35922C23.8026 8.31635 23.1092 9.08627 22.1731 9.37104C20.3591 9.92475 18.6505 10.7184 17.0922 11.7256C16.2669 12.2609 15.2122 12.3057 14.4054 11.752L11.2044 9.56088C10.155 8.8437 8.68369 9.081 7.94014 10.112C7.93486 10.1172 3.91914 15.8495 3.9165 15.8521C3.17295 16.8989 3.40498 18.3042 4.45703 19.0346L7.64482 21.2679C8.4042 21.7926 8.81289 22.7128 8.59404 23.6093C8.36201 24.5585 8.19854 25.5315 8.10625 26.5361C8.01397 27.5407 7.99551 28.5294 8.05088 29.505H8.04824V29.5077Z" stroke="black" stroke-width="1.5" stroke-linecap="round" stroke-linejoin="round"/>
<path d="M20.1484 29.315L24.8022 33.9715L35.6392 23.1372" stroke="#30B795" stroke-width="1.5" stroke-linecap="round" stroke-linejoin="round"/>
<path d="M71.8984 56.0172L87.2099 49.8921L102.524 56.0172" stroke="#30B795" stroke-width="1.5" stroke-linecap="round" stroke-linejoin="round"/>
<path d="M71.8984 56.0171L87.2099 62.1448L102.524 56.0171V74.3924L87.2099 80.5175L71.8984 74.3924V56.0171Z" stroke="#30B795" stroke-width="1.5" stroke-linecap="round" stroke-linejoin="round"/>
</svg>
